<?xml version="1.0" encoding="UTF-8" standalone="no"?>
<svg
   xmlns:dc="http://purl.org/dc/elements/1.1/"
   xmlns:cc="http://creativecommons.org/ns#"
   xmlns:rdf="http://www.w3.org/1999/02/22-rdf-syntax-ns#"
   xmlns:svg="http://www.w3.org/2000/svg"
   xmlns="http://www.w3.org/2000/svg"
   xmlns:sodipodi="http://sodipodi.sourceforge.net/DTD/sodipodi-0.dtd"
   xmlns:inkscape="http://www.inkscape.org/namespaces/inkscape"
   height="512px"
   id="Layer_1"
   style="enable-background:new 0 0 512 512;"
   version="1.1"
   viewBox="0 0 512 512"
   width="512px"
   xml:space="preserve"
   sodipodi:docname="bell_alert.svg"
   inkscape:version="0.92.3 (2405546, 2018-03-11)"><metadata
     id="metadata915"><rdf:RDF><cc:Work
         rdf:about=""><dc:format>image/svg+xml</dc:format><dc:type
           rdf:resource="http://purl.org/dc/dcmitype/StillImage" /><dc:title></dc:title></cc:Work></rdf:RDF></metadata><defs
     id="defs913" /><sodipodi:namedview
     pagecolor="#ffffff"
     bordercolor="#666666"
     borderopacity="1"
     objecttolerance="10"
     gridtolerance="10"
     guidetolerance="10"
     inkscape:pageopacity="0"
     inkscape:pageshadow="2"
     inkscape:window-width="3840"
     inkscape:window-height="2031"
     id="namedview911"
     showgrid="false"
     inkscape:zoom="1.84375"
     inkscape:cx="19.473182"
     inkscape:cy="257.43071"
     inkscape:window-x="0"
     inkscape:window-y="0"
     inkscape:window-maximized="1"
     inkscape:current-layer="Layer_1" /><g
     id="g908"><path
       d="M381.7,225.9c0-97.6-52.5-130.8-101.6-138.2c0-0.5,0.1-1,0.1-1.6c0-12.3-10.9-22.1-24.2-22.1c-13.3,0-23.8,9.8-23.8,22.1   c0,0.6,0,1.1,0.1,1.6c-49.2,7.5-102,40.8-102,138.4c0,113.8-28.3,126-66.3,158h384C410.2,352,381.7,339.7,381.7,225.9z M107.2,368   c8.6-9,16.4-18.4,22.7-31.8c12-25.3,17.4-59.2,17.4-110.2c0-46.4,12.5-80.4,37.1-101.2c22.9-19.3,51.7-23.3,71.8-23.3   c20.1,0,48.9,4,71.6,23.3c24.5,20.7,37,54.5,37,100.9c0,83.8,14.9,117.3,40.3,142.3H107.2z"
       id="path904" /><path
       d="M256.2,448c26.8,0,48.8-19.9,51.7-43H204.5C207.3,428.1,229.4,448,256.2,448z"
       id="path906" /></g><circle
     style="fill:#d40000;stroke:none;stroke-width:5.12881899;stroke-miterlimit:4;stroke-dasharray:none;stroke-opacity:1"
     id="path1460"
     cx="378.30508"
     cy="241.08475"
     r="61.559322" /></svg>