<?xml version="1.0" encoding="iso-8859-1"?>
<!-- Generator: Adobe Illustrator 19.0.0, SVG Export Plug-In . SVG Version: 6.00 Build 0)  -->
<svg version="1.1" id="Layer_1" xmlns="http://www.w3.org/2000/svg" xmlns:xlink="http://www.w3.org/1999/xlink" x="0px" y="0px"
	 viewBox="0 0 512.002 512.002" style="enable-background:new 0 0 512.002 512.002;" xml:space="preserve">
<polyline style="fill:#CFDCE5;" points="434.092,424.132 503.402,424.132 503.402,87.869 9.882,87.869 9.882,424.132 
	398.981,424.132 "/>
<path d="M502.76,78.63H9.24C4.136,78.63,0,82.767,0,87.87v336.262c0,5.103,4.136,9.24,9.24,9.24h389.099
	c5.104,0,9.24-4.137,9.24-9.24s-4.136-9.24-9.24-9.24H33.864l167.768-146.614l48.288,42.199c1.741,1.522,3.912,2.283,6.081,2.283
	c2.17,0,4.339-0.76,6.081-2.283l48.291-42.203l167.772,146.617h-44.693c-5.104,0-9.24,4.137-9.24,9.24s4.136,9.24,9.24,9.24h69.309
	c5.104,0,9.24-4.137,9.24-9.24V87.87C512,82.766,507.864,78.63,502.76,78.63z M473.714,113.253
	c-3.36-3.843-9.196-4.236-13.038-0.877L256,291.247L140.001,189.872c-3.843-3.357-9.677-2.965-13.038,0.877
	c-3.358,3.843-2.965,9.68,0.877,13.038l59.751,52.218L18.48,403.793V108.217l80.559,70.401c1.753,1.531,3.92,2.283,6.078,2.283
	c2.574,0,5.135-1.069,6.961-3.16c3.358-3.843,2.965-9.68-0.877-13.038L33.856,97.11H493.52v306.676L324.414,256.003l148.423-129.711
	C476.679,122.933,477.071,117.096,473.714,113.253z"/>
<g>
</g>
<g>
</g>
<g>
</g>
<g>
</g>
<g>
</g>
<g>
</g>
<g>
</g>
<g>
</g>
<g>
</g>
<g>
</g>
<g>
</g>
<g>
</g>
<g>
</g>
<g>
</g>
<g>
</g>
</svg>
